<svg xmlns="http://www.w3.org/2000/svg" style="background: transparent; background-color: transparent;" xmlns:xlink="http://www.w3.org/1999/xlink" version="1.1" width="300px" height="300px" viewBox="-0.5 -0.5 300 300"><defs/><g><g data-cell-id="0"><g data-cell-id="1"><g data-cell-id="ZOR9qngH1YLpzlK6d8JI-22"><g><rect x="80" y="200" width="33" height="60" fill="#00cccc" stroke="none" pointer-events="all" style="fill: light-dark(rgb(0, 204, 204), rgb(0, 136, 136));"/></g></g><g data-cell-id="ZOR9qngH1YLpzlK6d8JI-21"><g><rect x="180" y="90" width="33" height="160" fill="#00cccc" stroke="none" pointer-events="all" style="fill: light-dark(rgb(0, 204, 204), rgb(0, 136, 136));"/></g></g><g data-cell-id="ZOR9qngH1YLpzlK6d8JI-7"><g><rect x="131" y="170" width="33" height="90" fill="#00cccc" stroke="none" pointer-events="all" style="fill: light-dark(rgb(0, 204, 204), rgb(0, 136, 136));"/></g></g><g data-cell-id="ZOR9qngH1YLpzlK6d8JI-4"><g><path d="M 153 0.03 C 181.99 0.61 210.19 9.58 234.19 25.85 L 205.57 68.06 C 189.73 57.32 171.11 51.4 151.98 51.02 Z" fill="#00cccc" stroke="none" pointer-events="all" style="fill: light-dark(rgb(0, 204, 204), rgb(0, 136, 136));"/></g></g><g data-cell-id="ZOR9qngH1YLpzlK6d8JI-11"><g><path d="M 185.25 295.8 C 113.18 313.22 39.19 275.37 11.14 206.74 L 58.36 187.45 C 76.87 232.75 125.7 257.73 173.26 246.23 Z" fill="#00cccc" stroke="none" pointer-events="all" style="fill: light-dark(rgb(0, 204, 204), rgb(0, 136, 136));"/></g></g><g data-cell-id="ZOR9qngH1YLpzlK6d8JI-12"><g><path d="M 277.29 229.35 C 257.47 261.15 226.47 284.37 190.39 294.46 L 176.66 245.34 C 200.47 238.69 220.93 223.36 234.01 202.37 Z" fill="#ff9933" stroke="none" pointer-events="all" style="fill: light-dark(rgb(255, 153, 51), rgb(169, 81, 0));"/></g></g><g data-cell-id="ZOR9qngH1YLpzlK6d8JI-13"><g><path d="M 8.77 200.54 C -7.49 155.1 -0.89 104.6 26.5 64.86 C 53.9 25.12 98.74 1 147 0.03 L 148.02 51.02 C 116.17 51.66 86.57 67.58 68.49 93.81 C 50.41 120.04 46.06 153.37 56.79 183.36 Z" fill="#ff9933" stroke="none" pointer-events="all" style="fill: light-dark(rgb(255, 153, 51), rgb(169, 81, 0));"/></g></g></g></g></g></svg>